<svg width="1508" height="893" viewBox="0 0 1508 893" fill="none" xmlns="http://www.w3.org/2000/svg">
<g filter="url(#filter0_d_411_573)">
<path fill-rule="evenodd" clip-rule="evenodd" d="M31 509.755H305.733C355.382 509.753 413.165 505.427 448.885 520.042C474.327 530.453 490.618 549.534 497.745 578.331C499.61 585.862 499.014 592.879 500.317 601.476C503.309 621.236 498.144 641.719 490.888 653.336C482.179 667.281 467.289 676.986 451.028 683.338L429.169 689.767C469.256 691.177 500.707 713.644 513.175 743.342C534.219 793.478 508.675 845.085 475.887 864.208C437.193 886.776 376.203 884.78 315.162 884.78H31V509.755ZM707.759 509.755H880.485C944.484 634.751 1008.49 759.76 1072.5 884.78H923.774C911.49 860.21 899.204 835.637 886.914 811.061H700.045C688.189 835.632 676.332 860.205 664.471 884.78H515.747V884.352C579.745 759.499 643.749 634.634 707.759 509.755ZM1121.79 509.755H1249.08V797.775H1503.67V884.78H1121.79V509.755ZM1367.8 509.755C1381.65 509.584 1393.5 510.213 1403.38 514.041C1439.5 528.047 1472.5 573.158 1450.95 623.334C1439.84 649.212 1417.9 666.752 1386.23 672.195C1327.91 682.222 1277.42 619.297 1299.23 563.33C1308.1 540.553 1324.49 523.355 1347.23 514.47L1367.8 509.755ZM1370.8 529.042C1364.37 531.512 1357.34 530.943 1351.52 533.328C1335.76 539.783 1323.85 552.45 1317.66 568.474C1300.26 613.48 1338.44 660.625 1384.09 652.908C1408.91 648.711 1425.51 635.398 1433.81 614.762C1452.8 567.502 1415.6 528.662 1370.8 529.042ZM1343.37 547.901C1363.48 547.575 1396.35 543.96 1408.95 552.615C1417.59 558.554 1420.93 579.586 1413.23 589.475C1408.93 595.01 1402.01 594.278 1394.81 597.19C1401.52 608.762 1408.24 620.334 1414.95 631.906C1414.81 632.192 1414.66 632.478 1414.52 632.764H1394.38C1388.09 620.763 1381.8 608.762 1375.52 596.761H1362.66C1362.52 608.762 1362.38 620.763 1362.23 632.764L1343.37 632.335V547.901ZM1362.66 562.902V583.903C1374.1 584.192 1394.51 586.545 1398.23 578.76C1399.72 576.351 1399.82 571.425 1399.09 568.045C1392.39 561.137 1376.32 562.742 1362.66 562.902ZM162.152 592.475V655.908H304.447C337.775 655.912 362.458 660.574 367.451 630.621C369.508 618.267 365.839 603.689 359.736 598.904C348.194 589.854 321.574 592.475 301.447 592.475H162.152ZM793.479 602.762C774.192 644.903 754.906 687.048 735.619 729.199H852.626V728.77C832.911 686.772 813.195 644.769 793.479 602.762ZM162.152 734.342V802.061H320.734C355.969 802.065 382.958 806.794 388.453 775.487C391.067 760.592 385.534 746.656 378.166 741.199C365.072 731.502 336.172 734.342 313.876 734.342H162.152Z" fill="#B93A3F"/>
<path fill-rule="evenodd" clip-rule="evenodd" d="M485.318 136.45L358.024 136.022C359.356 122.255 356.052 109.791 349.88 102.162C341.331 91.5993 324.691 91.4844 307.877 88.8755C289.16 85.9709 266.353 87.5897 245.73 87.5897C219.609 87.5897 190.784 85.4866 168.582 90.5899C127.302 100.079 130.008 141.461 130.008 190.454C130.151 208.311 130.294 226.169 130.437 244.029C132.823 259.11 135.284 272.059 145.009 279.603C167.913 297.362 213.273 295.461 253.445 295.461L293.305 295.032C316.01 291.576 334.765 294.193 349.023 283.46C360.153 275.081 362.365 260.48 361.881 241.457H240.159V165.166H487.889C487.602 189.88 487.317 214.596 487.032 239.314V254.744C484.349 271.634 485.862 288.661 480.603 302.318C467.552 336.213 445.252 354.693 411.599 367.894C371.017 383.813 311.705 382.892 256.017 382.895C132.931 382.902 39.2802 384.527 10.8576 287.746C6.9612 274.479 7.27408 259.477 4.85721 244.457L4.42861 222.599L4.00001 182.739C3.99658 133.392 5.62868 82.8876 26.2872 53.7303C44.9283 27.4181 79.8652 14.6484 116.722 6.58433C148.447 -0.358994 186.176 0.155326 223.443 0.155326L277.875 0.583926H296.305L359.309 4.86993C440.555 19.5752 485.566 40.1009 485.318 136.45ZM1186.94 0.155326C1287.59 -0.462715 1404.57 -1.82995 1448.38 53.7303C1458.87 67.0379 1466.46 82.9364 1471.96 101.305C1487.96 154.853 1482.67 262.078 1463.38 306.176C1455.94 323.195 1442.69 337.596 1428.24 347.75C1382.61 379.809 1304.01 382.89 1227.22 382.895C1128.9 382.902 1026.42 381.449 985.494 323.748C958.719 285.996 956.418 221.131 959.349 156.166C960.648 127.419 965.131 99.951 974.35 78.5891C998.206 23.2997 1050.33 15.4799 1117.93 4.01273L1186.94 0.155326ZM538.036 4.01273H664.044V292.032H915.632V379.038H538.036V4.01273ZM1174.94 87.5897L1156.51 88.4469C1132.74 92.12 1113.01 92.3536 1103.36 109.877C1089.82 134.47 1089.64 219.563 1097.36 252.601C1100.29 265.152 1103.14 277.315 1111.93 283.889C1133.2 299.799 1194.24 295.461 1231.51 295.461C1265.65 295.461 1308 298.079 1327.95 283.031C1336.86 276.306 1339.41 262.651 1342.09 249.601C1349.53 213.269 1350.38 117.467 1328.37 100.448C1304.71 82.1465 1218.95 87.4762 1174.94 87.5897Z" fill="#B93A3F"/>
</g>
<defs>
<filter id="filter0_d_411_573" x="0" y="0" width="1507.67" height="892.826" filterUnits="userSpaceOnUse" color-interpolation-filters="sRGB">
<feFlood flood-opacity="0" result="BackgroundImageFix"/>
<feColorMatrix in="SourceAlpha" type="matrix" values="0 0 0 0 0 0 0 0 0 0 0 0 0 0 0 0 0 0 127 0" result="hardAlpha"/>
<feOffset dy="4"/>
<feGaussianBlur stdDeviation="2"/>
<feComposite in2="hardAlpha" operator="out"/>
<feColorMatrix type="matrix" values="0 0 0 0 0 0 0 0 0 0 0 0 0 0 0 0 0 0 0.25 0"/>
<feBlend mode="normal" in2="BackgroundImageFix" result="effect1_dropShadow_411_573"/>
<feBlend mode="normal" in="SourceGraphic" in2="effect1_dropShadow_411_573" result="shape"/>
</filter>
</defs>
</svg>
