<svg width="3001" height="383" viewBox="0 0 3001 383" fill="none" xmlns="http://www.w3.org/2000/svg">
<g clip-path="url(#clip0_330_563)">
<path fill-rule="evenodd" clip-rule="evenodd" d="M481.318 136.295L354.024 135.866C355.356 122.1 352.052 109.636 345.88 102.007C337.331 91.444 320.691 91.3291 303.877 88.7203C285.16 85.8156 262.353 87.4345 241.73 87.4345C215.609 87.4345 186.784 85.3313 164.582 90.4347C123.302 99.9239 126.008 141.306 126.008 190.298C126.151 208.155 126.294 226.014 126.437 243.873C128.823 258.955 131.284 271.904 141.009 279.447C163.913 297.207 209.273 295.305 249.445 295.305L289.305 294.877C312.01 291.421 330.765 294.038 345.023 283.305C356.153 274.926 358.365 260.325 357.881 241.302H236.159V165.011H483.889C483.602 189.724 483.317 214.44 483.032 239.159V254.588C480.349 271.479 481.862 288.506 476.603 302.163C463.552 336.058 441.252 354.538 407.599 367.739C367.017 383.658 307.705 382.737 252.017 382.74C128.931 382.746 35.2802 384.372 6.85761 287.591C2.9612 274.323 3.27408 259.322 0.857205 244.302L0.428605 222.443L5.37133e-06 182.584C-0.00342343 133.237 1.62868 82.7323 22.2872 53.5751C40.9283 27.2629 75.8652 14.4932 112.722 6.42905C144.447 -0.514268 182.176 5.22286e-05 219.443 5.22286e-05L273.875 0.428652H292.305L355.309 4.71465C436.555 19.4199 481.566 39.9456 481.318 136.295ZM1182.94 5.22286e-05C1283.59 -0.617989 1400.57 -1.98523 1444.38 53.5751C1454.87 66.8827 1462.46 82.7811 1467.96 101.15C1483.96 154.698 1478.67 261.922 1459.38 306.02C1451.94 323.04 1438.69 337.44 1424.24 347.595C1378.61 379.654 1300.01 382.735 1223.22 382.74C1124.9 382.746 1022.42 381.294 981.494 323.593C954.719 285.84 952.418 220.976 955.349 156.01C956.648 127.263 961.131 99.7957 970.35 78.4339C994.206 23.1445 1046.33 15.3246 1113.93 3.85745L1182.94 5.22286e-05ZM534.036 3.85745H660.044V291.877H911.632V378.882H534.036V3.85745ZM1527.53 3.85745H1802.26C1851.91 3.85488 1909.7 -0.471407 1945.42 14.1439C1970.86 24.555 1987.15 43.6358 1994.28 72.4334C1996.14 79.9644 1995.54 86.9814 1996.85 95.5779C1999.84 115.338 1994.67 135.821 1987.42 147.438C1978.71 161.383 1963.82 171.088 1947.56 177.44L1925.7 183.869C1965.79 185.279 1997.24 207.745 2009.71 237.444C2030.75 287.58 2005.21 339.187 1972.42 358.31C1933.72 380.878 1872.73 378.882 1811.69 378.882H1527.53V3.85745ZM2204.29 3.85745H2377.02C2441.01 128.853 2505.02 253.862 2569.03 378.882H2420.3C2408.02 354.312 2395.73 329.739 2383.44 305.163H2196.57C2184.72 329.734 2172.86 354.307 2161 378.882H2012.28V378.454C2076.28 253.601 2140.28 128.735 2204.29 3.85745ZM2618.32 3.85745H2745.61V291.877H3000.2V378.882H2618.32V3.85745ZM2864.33 3.85745C2878.18 3.68601 2890.03 4.31477 2899.91 8.14345C2936.03 22.1492 2969.03 67.2603 2947.48 117.436C2936.37 143.314 2914.43 160.854 2882.76 166.297C2824.44 176.324 2773.95 113.399 2795.76 57.4325C2804.63 34.6545 2821.02 17.4574 2843.76 8.57205L2864.33 3.85745ZM2867.33 23.1445C2860.9 25.6136 2853.87 25.0453 2848.05 27.4305C2832.29 33.8852 2820.38 46.5516 2814.19 62.5757C2796.79 107.582 2834.97 154.727 2880.62 147.01C2905.45 142.813 2922.04 129.5 2930.34 108.864C2949.33 61.604 2912.13 22.7643 2867.33 23.1445ZM2839.9 42.0029C2860.01 41.6771 2892.88 38.0623 2905.48 46.7175C2914.12 52.6561 2917.46 73.688 2909.77 83.577C2905.46 89.112 2898.54 88.3799 2891.34 91.2919C2898.05 102.864 2904.77 114.436 2911.48 126.008C2911.34 126.294 2911.19 126.58 2911.05 126.866H2890.91C2884.62 114.865 2878.33 102.864 2872.05 90.8633H2859.19C2859.05 102.864 2858.91 114.865 2858.76 126.866L2839.9 126.437V42.0029ZM2859.19 57.0039V78.0052C2870.63 78.2937 2891.04 80.6467 2894.76 72.8621C2896.25 70.4533 2896.35 65.5274 2895.62 62.1471C2888.92 55.2393 2872.85 56.8444 2859.19 57.0039ZM1658.68 86.5773V150.01H1800.98C1834.31 150.014 1858.99 154.676 1863.98 124.723C1866.04 112.369 1862.37 97.7911 1856.27 93.0063C1844.72 83.9555 1818.1 86.5773 1797.98 86.5773H1658.68ZM1170.94 87.4345L1152.51 88.2916C1128.74 91.9648 1109.01 92.1983 1099.36 109.722C1085.82 134.315 1085.64 219.407 1093.36 252.445C1096.29 264.997 1099.14 277.159 1107.93 283.733C1129.2 299.644 1190.24 295.305 1227.51 295.305C1261.65 295.305 1304 297.923 1323.95 282.876C1332.86 276.15 1335.41 262.496 1338.09 249.445C1345.53 213.114 1346.38 117.311 1324.37 100.292C1300.71 81.9912 1214.95 87.3209 1170.94 87.4345ZM2290.01 96.8637C2270.72 139.005 2251.44 181.15 2232.15 223.301H2349.16V222.872C2329.44 180.874 2309.73 138.871 2290.01 96.8637ZM1658.68 228.444V296.163H1817.26C1852.5 296.167 1879.49 300.896 1884.98 269.589C1887.6 254.694 1882.06 240.758 1874.7 235.301C1861.6 225.604 1832.7 228.444 1810.41 228.444H1658.68Z" fill="#B93A3F"/>
</g>
<defs>
<clipPath id="clip0_330_563">
<rect width="3000.2" height="382.74" fill="white"/>
</clipPath>
</defs>
</svg>
