<svg width="33" height="32" viewBox="0 0 33 32" fill="none" xmlns="http://www.w3.org/2000/svg">
<path d="M13.8882 0.0390192C6.22984 0.0390192 0 6.16503 0 13.6957C0 21.2264 6.22984 27.3524 13.8882 27.3524C16.2293 27.3524 18.5308 26.8062 20.4752 25.7527C20.6309 25.937 20.8036 26.1068 20.991 26.2599L24.9591 30.1618C25.3255 30.5672 25.7723 30.8947 26.272 31.1242C26.7718 31.3537 27.314 31.4803 27.8653 31.4962C28.4166 31.5122 28.9655 31.4172 29.4781 31.217C29.9907 31.0168 30.4563 30.7158 30.8464 30.3322C31.2364 29.9487 31.5426 29.4909 31.7461 28.9868C31.9497 28.4827 32.0463 27.943 32.0301 27.4009C32.0138 26.8587 31.8851 26.3256 31.6517 25.8342C31.4184 25.3427 31.0853 24.9034 30.6731 24.5431L26.705 20.6411C26.5117 20.451 26.2989 20.281 26.0701 20.1339C27.1415 18.222 27.8161 15.9979 27.8161 13.6567C27.8161 6.12601 21.5862 0 13.9279 0L13.8882 0.0390192ZM13.8882 3.94094C19.4038 3.94094 23.8083 8.27207 23.8083 13.6957C23.8083 16.271 22.856 18.6512 21.1894 20.407C21.1497 20.4461 21.11 20.4851 21.0704 20.5241C20.8829 20.6772 20.7103 20.847 20.5545 21.0313C18.8086 22.5921 16.4277 23.4896 13.8485 23.4896C8.33291 23.4896 3.92837 19.1584 3.92837 13.7348C3.92837 8.31109 8.33291 3.97996 13.8485 3.97996L13.8882 3.94094Z" fill="black"/>
</svg>
